<svg class="qodef-svg--author-leaf qodef-m-decoration-leaf qodef--appeared" xmlns="http://www.w3.org/2000/svg" xmlns:xlink="http://www.w3.org/1999/xlink" x="0px" y="0px" width="260px" height="490px" viewBox="0 0 260 490" enable-background="new 0 0 260 490" xml:space="preserve"><g><g><path fill="#E35640" d="M190.761,37.428c-13.53,13.568-24.438,29.573-36.118,44.705c-10.758,13.938-14.061,25.354-13.891,43.021
			c0.002,0.282,0.069,0.522,0.156,0.749c-4.579,5.411-8.373,11.44-10.658,17.916c-0.465-4.291-0.998-8.58-1.604-12.857
			c0.064-0.134,0.149-0.236,0.188-0.398c0.084-0.352,0.124-0.711,0.202-1.063c0.279-0.441,0.388-0.949,0.27-1.429
			c3.925-21.639-7.815-46.487-18.146-64.697c-3.187-5.615-6.988-10.885-10.045-16.564c-2.683-4.984-4.226-10.7-7.562-15.312
			C86.481,21.72,72.813,15.167,63.119,8.416c-1.423-0.989-3.511,0.29-3.159,2.026c4.913,24.332,7.669,50.435,19.428,72.663
			c10.296,19.465,25.974,35.112,44.92,46.11c4.997,34.007,5.662,68.443,1.351,102.576c-1.123,8.877-2.686,17.524-3.416,26.269
			c-0.371-0.984-0.751-1.988-1.124-3.045c-1.603-4.53-1.495-9.184-3.095-13.509c0.019-0.1,0.068-0.175,0.075-0.286
			c2.621-48.461-51.358-82.861-85.93-106.62c-1.807-1.24-3.579,0.72-3.003,2.522c7.176,22.446,15.099,44.839,29.942,63.513
			c14.358,18.064,33.851,30.091,54.208,40.31c2.726,4.294,2.208,9.65,3.664,14.396c1.938,6.313,4.936,10.878,4.461,17.841
			c-0.051,0.749,0.262,1.284,0.715,1.64c1.362,18.607,0.931,35.602-4.256,53.772c-0.098,0.34-0.088,0.653-0.038,0.951
			c-4.382,16.989-9.182,33.848-14.64,50.45c-0.885-10.985-3.844-21.585-8.857-31.515c-0.014-0.055-0.025-0.112-0.037-0.17
			c-0.088-0.423-0.292-0.726-0.533-0.977c-0.018-0.03-0.029-0.06-0.045-0.088c0.188-0.259,0.338-0.557,0.392-0.936
			c3.863-27.119-9.405-46.691-23.313-68.603c-3.616-5.699-6.934-12.183-11.859-16.896c-5.289-5.061-12.019-8.276-17.295-13.451
			C29.154,235.083,19.3,219.22,8.836,205.199c-1.322-1.769-3.713-0.185-3.562,1.66c0.077,0.887,0.144,1.785,0.212,2.676
			c-0.27,0.381-0.387,0.878-0.225,1.489c0.16,0.6,0.322,1.2,0.482,1.798c2.08,27.956,3.096,58.048,18.75,82.098
			c7.755,11.911,18.529,21.46,29.568,30.245c10.951,8.716,23.957,21.923,36.933,27.129c0.245,0.098,0.515,0.118,0.784,0.101
			c5.309,11.327,7.949,23.491,7.699,36.112c-0.012,0.526,0.178,0.938,0.436,1.272c-11.145,32.081-24.977,63.098-43.388,92.08
			c-1.397,2.2,1.93,4.531,3.335,2.317c26.631-41.916,43.862-88.082,57.101-135.603c0.388-0.021,0.782-0.158,1.146-0.547
			c4.654-4.974,10.169-10.843,16.617-13.376c0.259-0.102,0.446-0.249,0.617-0.404c26.223,5.465,49.93-0.359,70.55-18.529
			c11.351-9.998,21.452-21.965,31.364-33.345c8.249-9.472,13.898-18.981,16.31-31.05c0.176-0.404,0.377-0.794,0.545-1.202
			c0.232-0.575,0.181-1.084-0.027-1.505c0.014-0.082,0.031-0.155,0.046-0.235c0.282-1.885-2.016-2.633-3.327-1.723
			c-40.057,27.868-92.415,35.79-117.602,81.38c-0.756,0.396-1.063,1.064-0.994,1.747c-0.959,0.338-1.555,1.326-1.491,2.237
			c-4.351,2.241-8.258,5.729-11.769,9.289c1.036-3.849,2.054-7.706,3.047-11.568c0.367-0.501,0.736-0.999,1.105-1.499
			c0.668-0.899,0.413-1.821-0.191-2.436c0.001-0.11,0.028-0.228,0.016-0.33c3.025-11.898,4.589-23.988,4.349-36.29
			c1.37-0.751,2.921-1.518,4.002-2.575c1.257-1.231,1.946-3.08,2.874-4.557c1.666-2.66,3.631-4.984,5.905-7.026
			c0.072,0.011,0.121,0.047,0.195,0.049c4.555,0.214,8.454,2.571,13.116,2.011c4.703-0.566,8.859-3.226,12.482-6.106
			c6.577-5.227,9.283-11.852,3.543-19.016c-4.729-5.907-13.746-6.916-20.107-3.074c-7.245,4.376-10.585,12.858-9.379,21.015
			c-2.389,1.733-4.521,3.72-6.39,6.024c-2.349,2.9-3.785,5.906-6.421,8.284c-0.521-8.604-1.879-17.092-1.126-25.742
			c0.765-8.827,2.628-17.572,3.741-26.362c0.024-0.196,0.038-0.39,0.063-0.583c0.03-0.052,0.072-0.078,0.102-0.133
			c3.033-6.24,8.508-9.412,12.879-14.41c0.13-0.148,0.221-0.313,0.346-0.462c0.805,0.44,1.795,0.387,2.358-0.669
			c0.536-1.004,1.008-2.006,1.438-3.009c8.063-7.089,17.217-12.573,25.684-19.233c10.223-8.036,17.832-18.215,25.216-28.816
			c15.368-22.072,22.542-44.032,27.052-70.371c0.375-2.188-2.532-2.68-3.692-1.315c-17.877,21.014-41.528,36.017-59.278,56.926
			c-6.463,7.618-11.62,16.229-13.658,26.107c-1.825,8.849-1.002,17.881-2.521,26.565c-0.594,0.809-1.196,1.615-1.888,2.391
			c-0.673,0.753-0.574,1.554-0.11,2.146c-2.495,5.098-5.737,8.531-10.042,12.581c-1.071,1.009-2.042,2.068-2.966,3.158
			c2.202-21.863,2.406-43.826,0.788-65.697c0.273-0.294,0.479-0.674,0.494-1.202c0.361-12.078,11.353-28.76,20.92-37.124
			c6.667-5.828,15.209-9.148,19.699-17.22c2.763-4.974,3.361-10.934,5.596-16.151c2.205-5.165,5.134-9.987,7.311-15.183
			c4.221-10.066,6.859-20.517,8.588-31.264C194.354,37.482,191.973,36.212,190.761,37.428z M59.426,194.344
			c-11.643-16.082-18.555-34.388-24.664-53.05c17.276,11.803,34.473,23.432,48.975,38.748
			c14.756,15.582,29.765,34.573,30.354,56.778C93.224,226.285,73.357,213.589,59.426,194.344z M31.834,242.407
			c8.531,10.294,21.05,16.389,28.872,26.938c16.151,21.78,32.701,46.772,29.566,74.804c-6.011-6.886-9.892-14.562-17.768-20.331
			c-12.606-9.228-23.542-19.785-32.181-32.858c-15.327-23.192-22.957-50.419-30.093-77.029
			C17.276,223.535,24.259,233.261,31.834,242.407z M73.279,334.716c-5.033-3.796-10.091-7.564-15.058-11.451
			c-13.024-10.193-25.659-21.4-33.644-36.137c-8.924-16.471-11.742-35.494-13.337-54.409c5.704,19.653,12.521,39.031,23.223,56.534
			c6.073,9.936,13.386,19.096,21.983,26.974c6.61,6.056,15.395,10.557,21.402,17.143c2.34,2.565,4.119,5.425,5.936,8.259
			C79.965,338.86,75.502,336.392,73.279,334.716z M206.576,309.566c-19.811,18.732-42.801,26.159-69.089,21.008
			c23.41-9.888,45.857-22.619,67.843-35.262c13.072-7.52,27.561-16.462,37.982-28.233
			C234.424,283.351,219.012,297.809,206.576,309.566z M248.03,253.334c-6.035,10.505-17.739,21.05-26.998,27.838
			c-7.741,5.682-16.761,10.132-25.108,14.827c-18.414,10.36-37.084,20.816-56.483,29.319
			C163.855,286.251,210.864,276.959,248.03,253.334z M149.02,254.121c5.535-5.038,16.11-4.737,19.069,3.302
			c2.45,6.656-6.751,12.95-12.057,14.839c-4.253,1.514-8.03,0.077-12.022-0.749c0.127-0.376,0.135-0.767-0.014-1.136
			c-0.004-0.111,0.03-0.205,0.006-0.322C142.9,264.211,144.559,258.186,149.02,254.121z M191.686,166.417
			c-7.27,10.176-15.092,19.29-25.207,26.709c-5.774,4.235-11.668,8.143-17.243,12.502c0.096-0.417,0.204-0.83,0.29-1.249
			c5.817-8.342,7.471-18.492,13.451-26.897c3.777-5.305,9.365-9.132,13.839-13.786c5.194-5.405,9.583-11.479,14.788-16.901
			c8.041-8.373,16.6-16.31,22.775-25.573C209.408,137.074,202.344,151.492,191.686,166.417z M166.592,150.887
			c15.725-17.653,35.199-31.373,51.566-48.474c-4.527,21.674-24.869,36.265-38.971,52.306c-7.005,7.971-16.406,14.789-21.79,24.067
			c-2.773,4.776-4.491,9.8-6.587,14.653c0.018-0.318,0.043-0.625,0.059-0.944C151.728,176.1,155.419,163.435,166.592,150.887z
			 M92.164,37.047c4.557,7.867,8.259,16.205,12.992,24.074c9.965,16.576,22.083,39.903,20.912,60.485
			c-7.283-19.28-23.372-33.271-29.305-53.567c-5.824-19.928-20.991-33.363-29.287-51.912C76.611,21.925,87.175,28.428,92.164,37.047
			z M81.082,77.447C73.271,61.129,69.976,42.634,66.74,24.596c2.572,5.136,5.596,10.024,9.195,14.653
			c2.736,3.519,5.896,6.716,8.527,10.312c5.415,7.397,6.846,15.052,9.404,23.519c5.733,18.985,21.838,31.968,28.546,50.283
			C104.694,112.111,90.242,96.577,81.082,77.447z M176.3,80.295c-5.645,11.865-7.662,22.275-19.021,30.554
			c-4.259,3.104-8.542,6.727-12.478,10.763c0.026-5.773,0.329-11.46,1.831-17.107c2.543-9.566,8.521-16.35,14.389-23.998
			c9.068-11.82,17.694-24.152,27.77-35.163C186.139,57.625,181.81,68.724,176.3,80.295z"></path><path fill="#E35640" d="M155.5,271.368c0.814-0.409,1.622-0.923,2.32-1.504c0.61-0.505,1.569-2.085,2.346-2.188
			c2.598-0.34,1.868-4.335-0.721-3.997c-1.993,0.261-2.799,1.886-4.225,3.062c-1.492,1.231-3.371,1.849-5.297,1.82
			c-2.602-0.04-2.943,4.011-0.316,4.051C151.652,272.645,153.657,272.288,155.5,271.368z"></path></g></g></svg>